<svg width="70" height="40" viewBox="0 0 70 40" fill="none" xmlns="http://www.w3.org/2000/svg">
<rect width="70" height="40" rx="5" fill="white"/>
<g clip-path="url(#clip0_40_1367)">
<mask id="mask0_40_1367" style="mask-type:luminance" maskUnits="userSpaceOnUse" x="25" y="10" width="20" height="20">
<path d="M25 10H44.898V22.5269C44.9474 22.5937 44.9814 22.6686 45 22.7653V23.1534C44.9814 23.2506 44.9474 23.3352 44.898 23.4066V30H25V10Z" fill="url(#paint0_radial_40_1367)"/>
</mask>
<g mask="url(#mask0_40_1367)">
<path fill-rule="evenodd" clip-rule="evenodd" d="M25 30H45V10H25V30Z" fill="url(#paint1_radial_40_1367)"/>
</g>
<path fill-rule="evenodd" clip-rule="evenodd" d="M26.792 18.6686L26.4092 17.7393L26.0288 18.6686H26.792ZM35.2134 18.2998C35.1377 18.3428 35.0468 18.3475 34.9373 18.3475H34.2584V17.8285H34.9462C35.0445 17.8285 35.1464 17.8322 35.2127 17.8682C35.284 17.9038 35.3293 17.9761 35.3293 18.0754C35.3293 18.1783 35.2853 18.2585 35.2134 18.2998ZM40.0529 18.6686L39.6679 17.7393L39.2852 18.6686H40.0529ZM31.0316 19.6764H30.4591L30.4557 17.8489L29.6467 19.6764H29.1564L28.3431 17.8448V19.6764H27.2069L26.993 19.1555H25.8297L25.6138 19.6764H25.0066L26.0055 17.3399H26.8366L27.7862 19.5535V17.3399H28.6991L29.4292 18.9263L30.1013 17.3399H31.0316V19.6764ZM33.3129 19.6764H31.4469V17.3399H33.3127V17.8285H32.0069V18.2479H33.2809V18.7282L32.0069 18.7262V19.1928H33.3128L33.3129 19.6764ZM35.9445 17.9711C35.9445 18.3405 35.696 18.5357 35.5521 18.5933C35.674 18.6402 35.7776 18.7209 35.8262 18.7908C35.9051 18.9047 35.9208 19.0113 35.9208 19.2168V19.6764H35.3573L35.3555 19.3827C35.3555 19.2437 35.3688 19.0412 35.2649 18.9294C35.1834 18.8458 35.0605 18.8284 34.8587 18.8284H34.2584V19.6764H33.7002V17.3399H34.9862C35.27 17.3399 35.4812 17.3493 35.6623 17.4532C35.8392 17.5564 35.9445 17.7092 35.9445 17.9711ZM36.2692 19.6764H36.8391V17.3396H36.2692V19.6764ZM43.4505 19.6764H42.6582L41.5991 17.9245L41.601 19.6764H40.4633L40.2454 19.1555H39.0837L38.8748 19.6764H38.2209C37.9485 19.6764 37.6041 19.6159 37.4113 19.419C37.2128 19.2195 37.1125 18.952 37.1125 18.526C37.1125 18.1796 37.1734 17.8632 37.4133 17.613C37.5941 17.4266 37.8762 17.3399 38.2616 17.3399H38.8015V17.8402H38.2736C38.0695 17.8402 37.9533 17.8715 37.842 17.9798C37.748 18.0784 37.6814 18.2641 37.6814 18.5097C37.6814 18.7605 37.7314 18.939 37.8366 19.0586C37.9205 19.1502 38.0774 19.1778 38.225 19.1778H38.4762L39.2632 17.3399H40.0999L41.0461 19.5502V17.3398H41.8978L42.8794 18.967V17.3398H43.4505V19.6764ZM25 20.1367H25.9546L26.1698 19.6159H26.6514L26.8659 20.1367H28.7444V19.7391L28.9123 20.138H29.8858L30.053 19.7341V20.1367H34.7207L34.7184 19.2844H34.8087C34.8723 19.2858 34.8913 19.293 34.8913 19.398V20.1367H37.3038V19.9386C37.4986 20.0431 37.802 20.1367 38.1991 20.1367H39.2152L39.432 19.6159H39.9144L40.1292 20.1367H42.0843V19.6428L42.3811 20.1367H43.9469V16.877H42.3967V17.263L42.1803 16.877H40.5867V17.263L40.3875 16.877H38.2367C37.8763 16.877 37.5589 16.9266 37.3038 17.0671V16.877H35.8213V17.0671C35.6565 16.9226 35.4349 16.877 35.1895 16.877H29.7666L29.4012 17.7199L29.0295 16.877H27.3219V17.263L27.1323 16.877H25.6761L25 18.4254V20.1366V20.1367ZM44.8988 21.8609H43.879C43.7774 21.8609 43.7098 21.8649 43.6552 21.9026C43.5966 21.9398 43.5719 21.9982 43.5719 22.0724C43.5719 22.1591 43.6219 22.219 43.6961 22.245C43.7521 22.2656 43.817 22.2709 43.9123 22.2723L44.2114 22.2799C44.5165 22.2886 44.722 22.3405 44.8469 22.4674C44.8679 22.4862 44.8828 22.5084 44.8988 22.5264V21.8609ZM44.8988 23.402C44.7616 23.6013 44.4975 23.7015 44.1391 23.7015H43.0599V23.1992H44.1358C44.2407 23.1992 44.316 23.1849 44.3623 23.1412C44.3998 23.107 44.4286 23.054 44.4286 22.9897C44.4286 22.9208 44.3999 22.8662 44.3609 22.8348C44.3173 22.7979 44.2597 22.7829 44.1631 22.7816C43.6389 22.7652 42.9844 22.7979 42.9844 22.0588C42.9844 21.7201 43.2005 21.3634 43.7848 21.3634H44.8988V20.8984H43.8641C43.5516 20.8984 43.3255 20.9723 43.164 21.0902V20.8984H41.6341C41.392 20.8984 41.1052 20.9593 40.9673 21.0902L40.9694 20.8984H38.2378V21.0902C38.0203 20.9334 37.6546 20.8984 37.4831 20.8984H35.6841V21.0902C35.5113 20.923 35.1309 20.8984 34.8967 20.8984H32.8803L32.4197 21.3993L31.9877 20.8984H28.9756V24.1601H31.9313L32.407 23.6532L32.8549 24.1602L34.6741 24.1615V23.3944H34.8544C35.0945 23.3977 35.3816 23.3891 35.6327 23.2805V24.1602H37.1346V23.3098H37.2069C37.2995 23.3098 37.3088 23.3152 37.3088 23.4067V24.1602H41.8726C42.1603 24.1602 42.4627 24.0859 42.632 23.9527V24.1602H44.0798C44.3813 24.1602 44.6741 24.1185 44.8988 24.0109V23.402ZM42.6696 22.4675C42.7788 22.5808 42.8368 22.7236 42.8368 22.963C42.8368 23.4673 42.522 23.7015 41.9598 23.7015H40.8703V23.1992H41.9548C42.0621 23.1992 42.1363 23.1849 42.185 23.1412C42.2056 23.1218 42.2219 23.0983 42.233 23.0722C42.2441 23.0461 42.2496 23.018 42.2493 22.9897C42.2493 22.9208 42.2193 22.8662 42.181 22.8348C42.138 22.7979 42.0797 22.7829 41.9828 22.7816C41.4589 22.7652 40.8064 22.7979 40.8064 22.0588C40.8064 21.7201 41.0192 21.3634 41.6027 21.3634H42.7242V21.8609H41.701C41.5981 21.8609 41.5312 21.8649 41.4752 21.9026C41.4146 21.9398 41.392 21.9982 41.392 22.0724C41.392 22.1591 41.4439 22.219 41.5148 22.245C41.5721 22.2656 41.6341 22.2709 41.7303 22.2723L42.0314 22.2799C42.3366 22.2886 42.5427 22.3405 42.6696 22.4674V22.4675ZM37.6285 22.3242C37.5552 22.3672 37.4616 22.3716 37.3541 22.3716H36.6749V21.848H37.363C37.4616 21.848 37.5629 21.8499 37.6285 21.8883C37.7012 21.9276 37.7445 21.9995 37.7445 22.1004C37.7445 22.1994 37.7012 22.2799 37.6285 22.3242ZM37.9663 22.615C38.0905 22.66 38.192 22.7426 38.2397 22.8109C38.3184 22.9255 38.3313 23.032 38.332 23.2375V23.7016H37.7724V23.4094C37.7724 23.2675 37.7861 23.06 37.6815 22.9521C37.6009 22.8662 37.476 22.8472 37.2728 22.8472H36.6749V23.7015H36.1144V21.3634H37.403C37.6868 21.3634 37.893 21.375 38.0759 21.4739C38.252 21.5795 38.3613 21.7277 38.3613 21.9938C38.3613 22.3652 38.1135 22.5557 37.9663 22.615ZM38.672 21.3634H40.5373V21.848H39.2287V22.2709H40.5046V22.7483H39.2286V23.2129L40.5373 23.2155V23.7015H38.672V21.3634ZM34.9043 22.4415H34.1809V21.848H34.9103C35.1119 21.848 35.2514 21.9282 35.2514 22.1344C35.2514 22.3359 35.1185 22.4415 34.9043 22.4415ZM33.6246 23.4893L32.7688 22.5371L33.6248 21.6145V23.4893H33.6246ZM31.4104 23.2129H30.0371V22.7483H31.2633V22.2709H30.0371V21.848H31.4373L32.0473 22.5277L31.4104 23.2129ZM35.8506 22.1344C35.8506 22.7816 35.3677 22.9168 34.878 22.9168H34.1809V23.7015H33.0967L32.4086 22.928L31.6938 23.7015H29.4819V21.3634H31.7281L32.4153 22.1291L33.1254 21.3634H34.9103C35.354 21.3634 35.8506 21.4855 35.8506 22.1344Z" fill="white"/>
<path fill-rule="evenodd" clip-rule="evenodd" d="M35.9444 17.9715C35.9444 18.3412 35.6963 18.5357 35.5527 18.5933C35.6746 18.6403 35.7782 18.7215 35.8268 18.7908C35.9057 18.9054 35.9211 19.0114 35.9211 19.2175V19.6765H35.3579L35.3555 19.383C35.3555 19.2438 35.3696 19.0413 35.2653 18.9294C35.1833 18.8458 35.0611 18.8285 34.8586 18.8285H34.259V19.6765H33.7002V17.34H34.9868C35.27 17.34 35.4814 17.3493 35.6623 17.4532C35.8398 17.5565 35.9444 17.7093 35.9444 17.9715Z" fill="#2F9BCA"/>
<path fill-rule="evenodd" clip-rule="evenodd" d="M33.3136 19.6764H31.447V17.3396H33.3136V17.8285H32.0069V18.2479H33.2809V18.7282L32.0069 18.7269V19.1935H33.3136" fill="#2EA3D0"/>
<path fill-rule="evenodd" clip-rule="evenodd" d="M31.0317 19.6764H30.4591L30.4558 17.8489L29.6474 19.6764H29.1572L28.3431 17.8455V19.6764H27.2073L26.9932 19.1558H25.8297L25.6146 19.6764H25.0071L26.0059 17.3396H26.8366L27.7862 19.5539V17.3396H28.6995L29.4299 18.927L30.1014 17.3396H31.0317" fill="#55B2D8"/>
<path fill-rule="evenodd" clip-rule="evenodd" d="M35.214 18.2998C35.138 18.3435 35.0472 18.3475 34.9383 18.3475H34.259V17.8285H34.9469C35.0451 17.8285 35.1467 17.8321 35.2126 17.8688C35.2846 17.9038 35.3296 17.9761 35.3296 18.0757C35.3296 18.1782 35.2859 18.2592 35.214 18.2999M26.7922 18.6686L26.4092 17.7393L26.0288 18.6686" fill="white"/>
</g>
<defs>
<radialGradient id="paint0_radial_40_1367" cx="0" cy="0" r="1" gradientUnits="userSpaceOnUse" gradientTransform="translate(357.18 357.44) scale(2370.4)">
<stop stop-color="#88CDE7"/>
<stop offset="1" stop-color="#2274AD"/>
</radialGradient>
<radialGradient id="paint1_radial_40_1367" cx="0" cy="0" r="1" gradientUnits="userSpaceOnUse" gradientTransform="translate(357.18 357.44) scale(2370.4)">
<stop stop-color="#88CDE7"/>
<stop offset="1" stop-color="#2274AD"/>
</radialGradient>
<clipPath id="clip0_40_1367">
<rect width="20" height="20" fill="white" transform="translate(25 10)"/>
</clipPath>
</defs>
</svg>
