<svg width="70" height="40" viewBox="0 0 70 40" fill="none" xmlns="http://www.w3.org/2000/svg">
<rect width="70" height="40" rx="5" fill="white"/>
<g clip-path="url(#clip0_40_1358)">
<path d="M27.2548 29.9006V28.5769C27.2548 28.0693 26.9738 27.7385 26.4921 27.7385C26.2512 27.7385 25.9903 27.8267 25.8097 28.1136C25.6692 27.8708 25.4686 27.7385 25.1675 27.7385C24.9668 27.7385 24.7662 27.8046 24.6055 28.0473V27.7826H24.1841V29.9006H24.6055V28.7312C24.6055 28.3563 24.7862 28.1797 25.0672 28.1797C25.3481 28.1797 25.4887 28.3783 25.4887 28.7312V29.9006H25.9101V28.7312C25.9101 28.3563 26.1107 28.1797 26.3716 28.1797C26.6527 28.1797 26.7931 28.3783 26.7931 28.7312V29.9006H27.2548ZM33.4963 27.7826H32.814V27.1428H32.3926V27.7826H32.0113V28.2017H32.3925V29.1726C32.3925 29.658 32.5731 29.9447 33.0548 29.9447C33.2355 29.9447 33.4361 29.8786 33.5767 29.7903L33.4562 29.3932C33.3358 29.4814 33.1954 29.5035 33.095 29.5035C32.8943 29.5035 32.814 29.3711 32.814 29.1504V28.2017H33.4963V27.7826ZM37.0688 27.7384C36.828 27.7384 36.6674 27.8708 36.567 28.0473V27.7826H36.1456V29.9006H36.567V28.7092C36.567 28.3563 36.7075 28.1577 36.9684 28.1577C37.0487 28.1577 37.149 28.1798 37.2293 28.2018L37.3497 27.7606C37.2694 27.7385 37.149 27.7385 37.0688 27.7385V27.7384ZM31.6701 27.9591C31.4693 27.8046 31.1884 27.7385 30.8873 27.7385C30.4057 27.7385 30.0846 28.0032 30.0846 28.4224C30.0846 28.7755 30.3254 28.974 30.7469 29.0402L30.9475 29.0623C31.1683 29.1063 31.2887 29.1726 31.2887 29.2829C31.2887 29.4373 31.1282 29.5476 30.8472 29.5476C30.5662 29.5476 30.3454 29.4373 30.2049 29.327L30.0042 29.68C30.225 29.8565 30.5261 29.9447 30.8271 29.9447C31.389 29.9447 31.7102 29.658 31.7102 29.2608C31.7102 28.8857 31.4493 28.6871 31.0478 28.621L30.8472 28.5989C30.6665 28.5768 30.5261 28.5328 30.5261 28.4004C30.5261 28.2459 30.6665 28.1577 30.8873 28.1577C31.1282 28.1577 31.369 28.2679 31.4894 28.3342L31.6701 27.9591ZM42.8689 27.7385C42.628 27.7385 42.4675 27.8708 42.3671 28.0473V27.7826H41.9456V29.9006H42.3671V28.7092C42.3671 28.3563 42.5076 28.1577 42.7684 28.1577C42.8488 28.1577 42.9492 28.1798 43.0294 28.2018L43.1499 27.7606C43.0696 27.7385 42.9492 27.7385 42.8689 27.7385ZM37.4902 28.8416C37.4902 29.4814 37.8916 29.9447 38.5138 29.9447C38.7947 29.9447 38.9954 29.8786 39.1961 29.7021L38.9954 29.327C38.8349 29.4594 38.6743 29.5255 38.4937 29.5255C38.1525 29.5255 37.9117 29.2608 37.9117 28.8416C37.9117 28.4445 38.1525 28.1797 38.4937 28.1577C38.6743 28.1577 38.8349 28.2238 38.9954 28.3563L39.1961 27.9812C38.9954 27.8046 38.7947 27.7385 38.5138 27.7385C37.8916 27.7385 37.4902 28.2018 37.4902 28.8416ZM41.3837 28.8416V27.7826H40.9623V28.0473C40.8218 27.8488 40.6211 27.7385 40.3602 27.7385C39.8183 27.7385 39.3968 28.2018 39.3968 28.8416C39.3968 29.4814 39.8183 29.9447 40.3602 29.9447C40.6411 29.9447 40.8419 29.8345 40.9623 29.6359V29.9006H41.3837V28.8416ZM39.8383 28.8416C39.8383 28.4665 40.0591 28.1577 40.4203 28.1577C40.7615 28.1577 41.0024 28.4445 41.0024 28.8416C41.0024 29.2167 40.7615 29.5255 40.4203 29.5255C40.0591 29.5034 39.8383 29.2167 39.8383 28.8416ZM34.8009 27.7385C34.239 27.7385 33.8375 28.1797 33.8375 28.8416C33.8375 29.5035 34.2389 29.9447 34.821 29.9447C35.1019 29.9447 35.3829 29.8565 35.6037 29.658L35.4029 29.327C35.2424 29.4594 35.0417 29.5476 34.8411 29.5476C34.5801 29.5476 34.3192 29.4153 34.259 29.0401H35.684V28.8637C35.7041 28.1797 35.3429 27.7385 34.8009 27.7385ZM34.8009 28.1356C35.0618 28.1356 35.2425 28.3122 35.2825 28.6431H34.2791C34.3192 28.3563 34.4999 28.1356 34.8009 28.1356ZM45.2571 28.8416V26.9442H44.8357V28.0473C44.6952 27.8488 44.4945 27.7385 44.2336 27.7385C43.6917 27.7385 43.2703 28.2018 43.2703 28.8416C43.2703 29.4814 43.6917 29.9447 44.2336 29.9447C44.5146 29.9447 44.7153 29.8345 44.8357 29.6359V29.9006H45.2571V28.8416ZM43.7118 28.8416C43.7118 28.4665 43.9325 28.1577 44.2938 28.1577C44.635 28.1577 44.8758 28.4445 44.8758 28.8416C44.8758 29.2167 44.635 29.5255 44.2938 29.5255C43.9325 29.5034 43.7118 29.2167 43.7118 28.8416ZM29.6229 28.8416V27.7826H29.2015V28.0473C29.0609 27.8488 28.8603 27.7385 28.5993 27.7385C28.0575 27.7385 27.636 28.2018 27.636 28.8416C27.636 29.4814 28.0575 29.9447 28.5993 29.9447C28.8804 29.9447 29.0811 29.8345 29.2015 29.6359V29.9006H29.6229V28.8416ZM28.0575 28.8416C28.0575 28.4665 28.2783 28.1577 28.6395 28.1577C28.9807 28.1577 29.2216 28.4445 29.2216 28.8416C29.2216 29.2167 28.9807 29.5255 28.6395 29.5255C28.2783 29.5034 28.0575 29.2167 28.0575 28.8416Z" fill="black"/>
<path d="M31.5295 11.6989H37.8514V24.1864H31.5295V11.6989Z" fill="#FF5F00"/>
<path d="M31.931 17.9426C31.931 15.4054 33.0147 13.155 34.6805 11.6988C33.4563 10.6398 31.911 10 30.2252 10C26.2312 10 23 13.5521 23 17.9426C23 22.3331 26.2312 25.8852 30.2251 25.8852C31.9109 25.8852 33.4562 25.2454 34.6805 24.1863C33.0147 22.7523 31.931 20.4798 31.931 17.9426Z" fill="#EB001B"/>
<path d="M46.3811 17.9426C46.3811 22.3331 43.15 25.8852 39.1561 25.8852C37.4702 25.8852 35.9249 25.2454 34.7007 24.1863C36.3865 22.7303 37.4502 20.4798 37.4502 17.9426C37.4502 15.4054 36.3664 13.155 34.7007 11.6988C35.9248 10.6398 37.4702 10 39.1561 10C43.15 10 46.3811 13.5742 46.3811 17.9426Z" fill="#F79E1B"/>
</g>
<defs>
<clipPath id="clip0_40_1358">
<rect width="23.4043" height="20" fill="white" transform="translate(23 10)"/>
</clipPath>
</defs>
</svg>
