<svg width="70" height="40" viewBox="0 0 70 40" fill="none" xmlns="http://www.w3.org/2000/svg">
<rect width="70" height="40" rx="5" fill="white"/>
<g clip-path="url(#clip0_40_1349)">
<path d="M40.3819 11.5568C39.4591 10.505 37.791 10.0541 35.657 10.0541H29.4637C29.2525 10.0541 29.0483 10.1294 28.8877 10.2665C28.7272 10.4036 28.6208 10.5935 28.5877 10.802L26.0089 27.1575C25.9576 27.48 26.2074 27.772 26.5343 27.772H30.3578L31.3181 21.6812L31.2883 21.872C31.3567 21.4414 31.7249 21.1239 32.1609 21.1239H33.9779C37.5473 21.1239 40.3422 19.6741 41.1586 15.4801C41.1829 15.3561 41.2039 15.2353 41.222 15.1174C41.119 15.0628 41.119 15.0628 41.222 15.1174C41.4651 13.5673 41.2203 12.5121 40.3819 11.5568Z" fill="#27346A"/>
<path d="M32.7811 14.559C32.8857 14.5092 33 14.4834 33.1158 14.4835H37.9713C38.5462 14.4835 39.0825 14.5209 39.5726 14.5998C39.7097 14.6216 39.8462 14.6477 39.9817 14.6781C40.1737 14.7204 40.3636 14.7723 40.5505 14.8335C40.7915 14.9139 41.0158 15.0077 41.2221 15.1174C41.4651 13.5667 41.2203 12.5121 40.3819 11.5568C39.4586 10.505 37.791 10.0541 35.657 10.0541H29.4631C29.027 10.0541 28.656 10.3716 28.5877 10.802L26.0089 27.1569C25.9576 27.4799 26.2074 27.7716 26.5337 27.7716H30.3578L32.3501 15.1378C32.3697 15.0136 32.4191 14.896 32.4942 14.7952C32.5693 14.6944 32.6678 14.6133 32.7811 14.559Z" fill="#27346A"/>
<path d="M41.1586 15.4801C40.3422 19.6735 37.5473 21.1239 33.9779 21.1239H32.1604C31.7244 21.1239 31.3561 21.4415 31.2883 21.872L30.0937 29.4452C30.0491 29.7274 30.2673 29.9832 30.5529 29.9832H33.7761C33.9607 29.9831 34.1393 29.9172 34.2796 29.7973C34.42 29.6773 34.513 29.5113 34.5418 29.3289L34.5732 29.1646L35.1807 25.3146L35.2199 25.1018C35.2487 24.9194 35.3417 24.7534 35.482 24.6334C35.6224 24.5135 35.8009 24.4476 35.9856 24.4475H36.4679C39.5903 24.4475 42.0351 23.179 42.7495 19.5104C43.0477 17.9773 42.8934 16.6973 42.1046 15.7982C41.8653 15.5259 41.5681 15.301 41.222 15.1174C41.2032 15.236 41.1829 15.3561 41.1586 15.4801Z" fill="#2790C3"/>
<path d="M40.3676 14.7767C40.2403 14.7395 40.1118 14.7066 39.9823 14.678C39.8467 14.6482 39.7103 14.6223 39.5732 14.6003C39.0826 14.5209 38.5467 14.4834 37.9712 14.4834H33.1163C33.0004 14.4831 32.886 14.5092 32.7817 14.5595C32.6682 14.6137 32.5696 14.6947 32.4945 14.7955C32.4194 14.8964 32.37 15.0141 32.3505 15.1383L31.3186 21.6812L31.2888 21.8719C31.3567 21.4414 31.7249 21.1239 32.161 21.1239H33.9785C37.5479 21.1239 40.3427 19.6741 41.1591 15.4801C41.1835 15.356 41.2039 15.2359 41.2226 15.1174C41.0158 15.0082 40.7921 14.9139 40.5511 14.834C40.4903 14.8138 40.4291 14.7947 40.3676 14.7767" fill="#1F264F"/>
</g>
<defs>
<clipPath id="clip0_40_1349">
<rect width="17" height="20" fill="white" transform="translate(26 10)"/>
</clipPath>
</defs>
</svg>
