<svg width="40" height="40" viewBox="0 0 40 40" fill="none" xmlns="http://www.w3.org/2000/svg">
<path d="M17.7333 35.9C19.3333 36.3834 20.95 36.6667 22.6667 36.6667C27.0869 36.6667 31.3262 34.9108 34.4518 31.7852C37.5774 28.6595 39.3333 24.4203 39.3333 20C39.3333 17.8113 38.9022 15.6441 38.0647 13.622C37.2271 11.5999 35.9994 9.76257 34.4518 8.21493C32.9041 6.66728 31.0668 5.43963 29.0447 4.60205C27.0226 3.76447 24.8554 3.33337 22.6667 3.33337C20.478 3.33337 18.3107 3.76447 16.2886 4.60205C14.2665 5.43963 12.4292 6.66728 10.8816 8.21493C7.75595 11.3405 6 15.5798 6 20C6 27.0834 10.45 33.1667 16.7333 35.5667C16.5833 34.2667 16.4333 32.1167 16.7333 30.6334L18.65 22.4C18.65 22.4 18.1667 21.4334 18.1667 19.9C18.1667 17.6 19.6 15.8834 21.2333 15.8834C22.6667 15.8834 23.3333 16.9334 23.3333 18.2834C23.3333 19.7167 22.3833 21.7667 21.9 23.7334C21.6167 25.3667 22.7667 26.8 24.4333 26.8C27.4 26.8 29.7 23.6334 29.7 19.1667C29.7 15.1667 26.8333 12.4334 22.7167 12.4334C18.0167 12.4334 15.25 15.9334 15.25 19.6167C15.25 21.05 15.7167 22.5 16.4833 23.45C16.6333 23.55 16.6333 23.6834 16.5833 23.9334L16.1 25.75C16.1 26.0334 15.9167 26.1334 15.6333 25.9334C13.5 25 12.2667 21.9667 12.2667 19.5167C12.2667 14.25 16 9.46671 23.2 9.46671C28.9333 9.46671 33.4 13.5834 33.4 19.05C33.4 24.7834 29.85 29.3834 24.7667 29.3834C23.15 29.3834 21.5667 28.5167 21 27.5L19.8833 31.45C19.5 32.8834 18.45 34.8 17.7333 35.95V35.9Z" fill="white"/>
</svg>
