<svg width="70" height="40" viewBox="0 0 70 40" fill="none" xmlns="http://www.w3.org/2000/svg">
<rect width="70" height="40" rx="5" fill="white"/>
<g clip-path="url(#clip0_40_1343)">
<path d="M36.0305 16.7553C35.9963 19.4515 38.4359 20.956 40.2737 21.8506C42.1618 22.7684 42.796 23.357 42.7885 24.1778C42.7745 25.4339 41.2824 25.9883 39.8863 26.0099C37.4504 26.0476 36.0341 25.3529 34.9081 24.8275L34.0306 28.9292C35.1603 29.4492 37.2521 29.9027 39.4212 29.9226C44.513 29.9226 47.8442 27.4118 47.8623 23.519C47.8822 18.5784 41.0213 18.305 41.0682 16.0967C41.0844 15.4271 41.724 14.7125 43.1255 14.5308C43.8193 14.4391 45.7344 14.3688 47.9056 15.3676L48.7578 11.3992C47.5902 10.9744 46.0895 10.5678 44.221 10.5678C39.4285 10.5678 36.0577 13.1127 36.0305 16.7553ZM56.9464 10.9096C56.0166 10.9096 55.2331 11.4514 54.8834 12.2828L47.6101 29.6311H52.6981L53.7106 26.8359H59.9281L60.5155 29.6311H65L61.0866 10.9096H56.9464ZM57.6582 15.967L59.1266 22.9971H55.1052L57.6582 15.967ZM29.8616 10.9098L25.8509 29.6309H30.6995L34.7082 10.9094H29.8616M22.689 10.9094L17.6424 23.6522L15.601 12.8175C15.3615 11.608 14.4155 10.9096 13.3651 10.9096H5.11555L5 11.4532C6.69359 11.8203 8.61781 12.4125 9.78359 13.046C10.497 13.433 10.7005 13.7713 10.9348 14.691L14.8013 29.6311H19.925L27.7803 10.9096L22.689 10.9094Z" fill="url(#paint0_linear_40_1343)"/>
</g>
<defs>
<linearGradient id="paint0_linear_40_1343" x1="2763.44" y1="68.7484" x2="2819.4" y2="-1919.03" gradientUnits="userSpaceOnUse">
<stop stop-color="#222357"/>
<stop offset="1" stop-color="#254AA5"/>
</linearGradient>
<clipPath id="clip0_40_1343">
<rect width="60" height="20" fill="white" transform="translate(5 10)"/>
</clipPath>
</defs>
</svg>
