<svg width="40" height="40" viewBox="0 0 40 40" fill="none" xmlns="http://www.w3.org/2000/svg">
<g clip-path="url(#clip0_40_1334)">
<path d="M24.406 19.666L19.914 17.57C19.522 17.3881 19.2 17.592 19.2 18.026V21.9741C19.2 22.4081 19.522 22.612 19.914 22.43L24.404 20.334C24.798 20.15 24.798 19.85 24.406 19.666ZM21.2 0.800049C10.596 0.800049 2 9.39605 2 20C2 30.604 10.596 39.2001 21.2 39.2001C31.804 39.2001 40.4 30.604 40.4 20C40.4 9.39605 31.804 0.800049 21.2 0.800049ZM21.2 27.8C11.372 27.8 11.2 26.914 11.2 20C11.2 13.0861 11.372 12.2 21.2 12.2C31.028 12.2 31.2 13.0861 31.2 20C31.2 26.914 31.028 27.8 21.2 27.8Z" fill="white"/>
</g>
<defs>
<clipPath id="clip0_40_1334">
<rect width="40" height="40" fill="white"/>
</clipPath>
</defs>
</svg>
